<?xml version="1.0" encoding="utf-8"?>
<!-- Generator: Adobe Illustrator 24.2.3, SVG Export Plug-In . SVG Version: 6.00 Build 0)  -->
<svg version="1.1" id="Layer_1" xmlns="http://www.w3.org/2000/svg" xmlns:xlink="http://www.w3.org/1999/xlink" x="0px" y="0px"
	 viewBox="0 0 32 32" style="enable-background:new 0 0 32 32;" xml:space="preserve">
<style type="text/css">
	.st0{fill:none;stroke:#fff;stroke-linecap:round;stroke-linejoin:round;stroke-miterlimit:10;stroke-width:2px;}
</style>
<path class="st0" d="M23.3,4.2h-18c-0.6,0-1,0.4-1,1v8.5v2.5v3.9l3-3c0.6-0.6,1.3-0.9,2.1-0.9h13.8c0.6,0,1-0.4,1-1v-10
	C24.3,4.6,23.9,4.2,23.3,4.2z"/>
<path class="st0" d="M8.6,18.8v3.3c0,0.6,0.4,1,1,1h13.8c0.8,0,1.6,0.3,2.1,0.9l3,3v-3.9v-2.5v-8.5c0-0.6-0.4-1-1-1h-1.3"/>
<path class="st0" d="M25.8,18.8"/>
</svg>
