<?xml version="1.0" encoding="utf-8"?>
<!-- Generator: Adobe Illustrator 24.2.3, SVG Export Plug-In . SVG Version: 6.00 Build 0)  -->
<svg version="1.1" id="Layer_1" xmlns="http://www.w3.org/2000/svg" xmlns:xlink="http://www.w3.org/1999/xlink" x="0px" y="0px"
	 viewBox="0 0 32 32" style="enable-background:new 0 0 32 32;" xml:space="preserve">
<style type="text/css">
	.st0{fill:none;stroke:#fff;stroke-miterlimit:10;stroke-width:2px;}
	.st1{fill:none;stroke:#fff;stroke-linecap:round;stroke-miterlimit:10;stroke-width:2px;}
</style>
<path class="st0" d="M19.5,12.5"/>
<path class="st1" d="M19.8,5.9H6.3c-0.6,0-1,0.5-1,1v18.8c0,0.6,0.5,1,1,1h18.8c0.6,0,1-0.5,1-1V12.2"/>
<path class="st0" d="M16.9,12.6l9.4-9.4c0.5-0.5,1.3-0.5,1.8,0L28.8,4c0.5,0.5,0.5,1.3,0,1.8l-9.4,9.4c-0.1,0.1-0.2,0.1-0.2,0.2
	l-4.1,2.4c-0.6,0.3-1.2-0.3-0.9-0.9l2.4-4.1C16.7,12.7,16.8,12.7,16.9,12.6z"/>
</svg>
