<?xml version="1.0" encoding="utf-8"?>
<!-- Generator: Adobe Illustrator 24.2.3, SVG Export Plug-In . SVG Version: 6.00 Build 0)  -->
<svg version="1.1" id="Layer_1" xmlns="http://www.w3.org/2000/svg" xmlns:xlink="http://www.w3.org/1999/xlink" x="0px" y="0px"
	 viewBox="0 0 500 160" style="enable-background:new 0 0 500 160;" xml:space="preserve">
<style type="text/css">
	.st0{fill:#fff;}
</style>
<g>
	<path class="st0" d="M9.5,10.7h37.2v108.6h53.6v29.3H9.5V10.7z"/>
	<path class="st0" d="M189.3,93.6c1.4-5,1.9-11.3,1.9-16.8h33.6c-0.7,15.6-5.3,30.3-12.9,42.3l25.4,29.5h-40.6l-7-8.4
		c-8.6,7.2-20.4,10.8-33.1,10.8c-29.3,0-48.1-15.9-48.1-40.6c0-16.1,8.6-28.8,23.5-36.5c-9.8-12-13.7-21.4-13.7-31.9
		c0-21.1,16.1-33.7,40.9-33.7C183.8,8.3,200,21,200,42.1v5.5h-33.7v-5.5c0-5.8-2.2-8.7-7.2-8.7s-7.4,3.1-7.4,8.7
		c0,5.1,1.9,9.2,8,16.6L189.3,93.6z M172.3,120.5l-22.1-25.7c-4.5,3.8-7,8.9-7,14.9c0,10.3,6.5,15.1,15.9,15.1
		C163.9,124.8,168.9,123.4,172.3,120.5z"/>
	<path class="st0" d="M245,10.7h88.7v29.5h-51.6v25h45.6v29.5h-45.6v54H245V10.7z"/>
	<path class="st0" d="M405,148.6l-23.5-62.3v62.3h-35.6V10.7h34.4L418.5,112l38.2-101.2H491v137.9h-35.6V86.3l-23.5,62.3H405z"/>
</g>
</svg>
